<svg width="65" height="65" viewBox="0 0 65 65" fill="none" xmlns="http://www.w3.org/2000/svg">
<path fill-rule="evenodd" clip-rule="evenodd" d="M22.5443 12.6301L22.6188 12.3051C22.761 11.7011 22.9939 10.8128 23.4746 9.93801C23.9648 9.04697 24.7245 8.14374 25.9162 7.54926C27.1038 6.95749 28.592 6.73676 30.4323 6.98051C32.4636 7.25134 36.5437 7.92301 40.1485 9.75655C43.7736 11.6009 47.1698 14.7737 47.1698 20.0577C47.1698 22.7877 46.1136 25.7168 45.0898 27.6261C44.5982 28.5443 44.0146 29.4218 43.4296 29.8944C43.2955 30.0027 43.1046 30.1381 42.8676 30.2329C42.2176 32.3692 40.9236 34.2526 39.1626 35.6255C37.4016 36.9985 35.2595 37.794 33.0291 37.9034C30.7988 38.0128 28.5892 37.4306 26.7023 36.2365C24.8154 35.0424 23.3433 33.2947 22.4874 31.2323L22.4549 31.2377L21.9742 30.654L21.9728 30.6513L21.9701 30.6486L21.9634 30.6392L21.9403 30.6121C21.8244 30.4678 21.7129 30.3202 21.6059 30.1693C21.3134 29.7637 21.0379 29.3463 20.7798 28.918C20.1434 27.8645 19.3755 26.364 18.884 24.6131C18.3938 22.8622 18.169 20.8093 18.6836 18.6913C19.1846 16.6303 20.3668 14.6018 22.5077 12.7899L22.5443 12.6301ZM24.8193 29.744C25.4066 31.433 26.5344 32.8812 28.0281 33.8643C29.5217 34.8475 31.2979 35.3106 33.0814 35.1822C34.865 35.0537 36.5564 34.3407 37.8937 33.1537C39.2311 31.9666 40.1397 30.3717 40.4789 28.616L40.6319 28.6675C40.6265 28.5909 40.6238 28.5141 40.6238 28.4373C40.6238 26.1961 40.3123 24.6321 40.0225 23.6571C39.9659 23.4673 39.9032 23.2794 39.8343 23.0937L39.7788 23.0964H39.7246C38.712 23.1183 37.6997 23.0412 36.7021 22.8662C34.377 22.4735 31.2286 21.4931 27.5209 19.2222C27.4396 19.4036 27.3583 19.6081 27.2771 19.8356C27.0117 20.5872 26.7937 21.4796 26.6054 22.4221C26.4389 23.2522 26.3021 24.0877 26.1721 24.8704L26.122 25.1792C25.9825 26.0187 25.843 26.8434 25.6805 27.4406C25.3962 28.4779 25.1064 29.2146 24.8193 29.7427V29.744ZM22.9235 27.2212C22.3118 26.1714 21.8315 25.0503 21.4935 23.8832C21.0886 22.4397 20.9396 20.877 21.3161 19.3319C21.6817 17.8287 22.566 16.2484 24.3846 14.7507C24.7123 14.5286 24.8613 14.2307 24.9019 14.1508V14.1495C24.973 14.0031 25.0301 13.8503 25.0725 13.6931C25.1159 13.5387 25.1632 13.3275 25.2079 13.1379L25.2553 12.9253C25.384 12.3796 25.5505 11.7851 25.8485 11.2421C26.1382 10.7167 26.535 10.2671 27.1254 9.97322C27.7186 9.67665 28.6367 9.47353 30.0748 9.66582C32.0424 9.92717 35.7434 10.5542 38.9202 12.171C42.0754 13.7757 44.4615 16.2051 44.4615 20.0577C44.4615 21.8317 43.8656 23.8494 43.1479 25.4405C43.0125 24.4032 42.8175 23.5555 42.6171 22.8838C42.4774 22.4038 42.3032 21.9345 42.0957 21.4796C42.0176 21.311 41.9317 21.1461 41.8385 20.9853L41.8154 20.9487L41.8073 20.9352L41.8032 20.9284L41.8005 20.9244L41.2995 20.1471L40.403 20.3272L40.3841 20.3312L40.2527 20.3488C40.0512 20.3713 39.8488 20.3848 39.6461 20.3895C38.8111 20.4056 37.9766 20.3403 37.1544 20.1945C34.9701 19.8261 31.7607 18.8227 27.8621 16.2268L26.9142 15.5944L26.1301 16.4204C25.4842 17.1002 25.0454 18.0278 24.7245 18.931C24.3968 19.8586 24.149 20.8946 23.9499 21.8885C23.7849 22.7344 23.635 23.5831 23.5003 24.4344L23.4489 24.7377C23.304 25.6193 23.1862 26.2923 23.067 26.7283C23.0225 26.8936 22.9747 27.0579 22.9235 27.2212Z" fill="#BE111D"/>
<path fill-rule="evenodd" clip-rule="evenodd" d="M24.2585 39.0793C23.9715 38.5078 23.618 37.8023 23.0208 37.9391C15.7029 39.6047 8.125 44.4134 8.125 49.5267V56.8798H56.875V49.5267C56.875 45.4994 52.1733 41.6603 46.6009 39.3975L46.5942 39.384C46.588 39.3717 46.5817 39.3595 46.5752 39.3474L46.5305 39.3691C45.0504 38.7733 43.5094 38.2858 41.9792 37.9391C41.298 37.7834 40.5939 38.7204 40.2865 39.3068H24.375C24.3371 39.2364 24.2992 39.1578 24.2585 39.0793ZM42.5249 40.8668C43.1167 41.0307 43.7057 41.2148 44.2867 41.4179C44.3029 41.8811 44.2677 42.4282 44.1919 42.9861C44.1147 43.5637 43.9915 44.1343 43.8235 44.6923H41.9792C41.7277 44.6925 41.4813 44.7626 41.2675 44.8948C41.0537 45.0271 40.8809 45.2163 40.7685 45.4412L39.4144 48.1495C39.3202 48.3374 39.2711 48.5446 39.2708 48.7548V51.4632C39.2708 51.8223 39.4135 52.1667 39.6675 52.4207C39.9214 52.6747 40.2659 52.8173 40.625 52.8173H43.3333V50.109H41.9792V49.0744L42.816 47.4007H46.559L47.3958 49.0744V50.109H46.0417V52.8173H48.75C49.1091 52.8173 49.4536 52.6747 49.7075 52.4207C49.9615 52.1667 50.1042 51.8223 50.1042 51.4632V48.7548C50.1039 48.5446 50.0548 48.3374 49.9606 48.1495L48.6065 45.4412C48.4941 45.2163 48.3213 45.0271 48.1075 44.8948C47.8937 44.7626 47.6472 44.6925 47.3958 44.6923H46.6294C46.7967 43.9757 46.909 43.2473 46.9652 42.5135C48.2855 43.1377 49.5124 43.8541 50.5754 44.6287C53.1781 46.5272 54.1667 48.3039 54.1667 49.5267V54.1715H10.8333V49.5267C10.8333 48.3039 11.8219 46.5272 14.4246 44.6287C15.7327 43.674 17.2941 42.81 18.9678 42.095C19.0143 43.1741 19.1875 44.2441 19.4837 45.2827L19.4946 45.3207C18.685 45.8328 18.0825 46.6146 17.7934 47.5279C17.5043 48.4412 17.5473 49.4273 17.9147 50.312C18.2821 51.1967 18.9504 51.9231 19.8014 52.3629C20.6525 52.8027 21.6316 52.9276 22.5658 52.7155C23.5 52.5035 24.3292 51.9681 24.907 51.204C25.4847 50.4399 25.7739 49.4961 25.7233 48.5395C25.6728 47.5829 25.2858 46.6749 24.6308 45.9759C23.9757 45.2769 23.0947 44.8318 22.1433 44.7194C21.9703 44.1528 21.8435 43.5732 21.7642 42.9861C21.6888 42.461 21.6575 41.9306 21.6707 41.4003C21.6747 41.2991 21.6814 41.1979 21.691 41.097C21.8535 41.0469 22.016 40.9982 22.1785 40.9521L22.7405 42.0165H41.9209L42.5249 40.8682V40.8668ZM21.6667 50.1307C22.3952 50.1307 23.0208 49.5348 23.0208 48.7562C23.0208 47.9789 22.3952 47.3817 21.6667 47.3817C20.9381 47.3817 20.3125 47.9775 20.3125 48.7562C20.3125 49.5335 20.9381 50.1307 21.6667 50.1307Z" fill="#BE111D"/>
</svg>
